<svg id="Layer_1" enable-background="new 0 0 500 500" viewBox="0 0 500 500" xmlns="http://www.w3.org/2000/svg">
  <g fill="#fff">
    <path
      d="m470.239 129.563h-440.478c-2.629 0-4.761-2.131-4.761-4.761v-64.529c0-2.629 2.132-4.761 4.761-4.761h440.478c2.629 0 4.761 2.132 4.761 4.761v64.529c0 2.63-2.132 4.761-4.761 4.761zm-435.717-9.522h430.956v-55.007h-430.956z" />
    <path
      d="m168.2 174.452h-76.453c-2.63 0-4.761-2.132-4.761-4.761v-44.888c0-2.629 2.131-4.761 4.761-4.761h76.453c2.63 0 4.761 2.132 4.761 4.761v44.888c0 2.629-2.131 4.761-4.761 4.761zm-71.692-9.522h66.931v-35.366h-66.931z" />
    <path
      d="m168.024 444.488h-76.1c-20.608 0-37.377-16.766-37.377-37.375v-195.045c0-2.629 2.132-4.761 4.761-4.761h141.331c2.629 0 4.761 2.132 4.761 4.761v195.046c0 20.608-16.768 37.374-37.376 37.374zm-103.955-227.659v190.285c0 15.358 12.496 27.853 27.855 27.853h76.1c15.359 0 27.855-12.495 27.855-27.853v-190.285z" />
    <path
      d="m150.665 423.447h-11.902c-2.629 0-4.761-2.132-4.761-4.761s2.132-4.761 4.761-4.761h11.902c2.63 0 4.761 2.132 4.761 4.761s-2.132 4.761-4.761 4.761z" />
    <path
      d="m116.996 423.447h-17.708c-1.694 0-3.382-.177-5.019-.526-2.574-.546-4.215-3.075-3.666-5.646.548-2.574 3.094-4.224 5.646-3.667.988.21 2.009.316 3.038.316h17.708c2.629 0 4.761 2.132 4.761 4.761s-2.131 4.762-4.76 4.762zm-36.486-14.845c-2.157 0-4.112-1.477-4.628-3.666-.428-1.814-.644-3.68-.642-5.544v-17.275c0-2.629 2.132-4.761 4.761-4.761 2.63 0 4.761 2.132 4.761 4.761v17.282c-.002 1.132.128 2.255.386 3.347.604 2.56-.979 5.124-3.538 5.728-.37.088-.737.128-1.1.128zm-.51-43.491c-2.629 0-4.761-2.132-4.761-4.761v-21.767c0-2.629 2.132-4.761 4.761-4.761 2.63 0 4.761 2.132 4.761 4.761v21.767c0 2.629-2.131 4.761-4.761 4.761z" />
    <path
      d="m80 321.522c-2.629 0-4.761-2.131-4.761-4.761v-11.902c0-2.63 2.132-4.761 4.761-4.761 2.63 0 4.761 2.131 4.761 4.761v11.902c0 2.63-2.131 4.761-4.761 4.761z" />
    <path
      d="m408.253 174.452h-76.453c-2.63 0-4.761-2.132-4.761-4.761v-44.888c0-2.629 2.131-4.761 4.761-4.761h76.453c2.63 0 4.761 2.132 4.761 4.761v44.888c0 2.629-2.132 4.761-4.761 4.761zm-71.692-9.522h66.931v-35.366h-66.931z" />
    <path
      d="m205.958 216.829h-151.969c-11.005 0-19.958-8.953-19.958-19.957v-11.984c0-11.005 8.953-19.957 19.958-19.957h151.969c11.006 0 19.957 8.953 19.957 19.957v11.984c.001 11.004-8.951 19.957-19.957 19.957zm-151.969-42.377c-5.753 0-10.436 4.682-10.436 10.435v11.984c0 5.754 4.683 10.435 10.436 10.435h151.969c5.754 0 10.436-4.682 10.436-10.435v-11.984c0-5.754-4.682-10.435-10.436-10.435z" />
    <path
      d="m446.011 216.829h-151.969c-11.005 0-19.958-8.953-19.958-19.957v-11.984c0-11.005 8.953-19.957 19.958-19.957h151.969c11.005 0 19.957 8.953 19.957 19.957v11.984c0 11.004-8.952 19.957-19.957 19.957zm-151.969-42.377c-5.754 0-10.436 4.682-10.436 10.435v11.984c0 5.754 4.682 10.435 10.436 10.435h151.969c5.754 0 10.436-4.682 10.436-10.435v-11.984c0-5.754-4.682-10.435-10.436-10.435z" />
    <path
      d="m408.076 444.488h-76.1c-20.608 0-37.377-16.766-37.377-37.375v-195.045c0-2.629 2.132-4.761 4.761-4.761h141.331c2.629 0 4.761 2.132 4.761 4.761v195.046c.001 20.608-16.768 37.374-37.376 37.374zm-103.954-227.659v190.285c0 15.358 12.496 27.853 27.855 27.853h76.1c15.359 0 27.855-12.495 27.855-27.853v-190.285z" />
    <path
      d="m390.717 423.447h-11.902c-2.629 0-4.761-2.132-4.761-4.761s2.132-4.761 4.761-4.761h11.902c2.63 0 4.761 2.132 4.761 4.761s-2.131 4.761-4.761 4.761z" />
    <path
      d="m357.049 423.447h-17.708c-1.695 0-3.382-.177-5.019-.526-2.574-.546-4.215-3.075-3.666-5.646.548-2.574 3.087-4.224 5.646-3.667.988.21 2.009.316 3.039.316h17.708c2.629 0 4.761 2.132 4.761 4.761s-2.132 4.762-4.761 4.762zm-36.487-14.843c-2.157 0-4.112-1.476-4.629-3.666-.428-1.809-.644-3.673-.644-5.54v-17.28c0-2.629 2.131-4.761 4.761-4.761 2.629 0 4.761 2.132 4.761 4.761v17.28c0 1.132.13 2.26.388 3.35.604 2.559-.981 5.123-3.538 5.728-.369.089-.736.128-1.099.128zm-.511-43.491c-2.63 0-4.761-2.132-4.761-4.761v-21.766c0-2.63 2.131-4.761 4.761-4.761 2.629 0 4.761 2.131 4.761 4.761v21.766c0 2.629-2.132 4.761-4.761 4.761z" />
    <path
      d="m320.051 321.522c-2.63 0-4.761-2.131-4.761-4.761v-11.902c0-2.63 2.131-4.761 4.761-4.761 2.629 0 4.761 2.131 4.761 4.761v11.902c0 2.63-2.132 4.761-4.761 4.761z" />
    <path
      d="m41.664 97.299h-11.903c-2.629 0-4.761-2.132-4.761-4.761 0-2.63 2.132-4.761 4.761-4.761h11.903c2.629 0 4.76 2.131 4.76 4.761 0 2.629-2.131 4.761-4.76 4.761z" />
    <path
      d="m220.011 97.299h-22.292c-2.629 0-4.761-2.132-4.761-4.761 0-2.63 2.132-4.761 4.761-4.761h22.292c2.63 0 4.761 2.131 4.761 4.761 0 2.629-2.131 4.761-4.761 4.761zm-44.586 0h-22.294c-2.63 0-4.761-2.132-4.761-4.761 0-2.63 2.131-4.761 4.761-4.761h22.294c2.629 0 4.761 2.131 4.761 4.761 0 2.629-2.132 4.761-4.761 4.761zm-44.588 0h-22.292c-2.629 0-4.76-2.132-4.76-4.761 0-2.63 2.131-4.761 4.76-4.761h22.292c2.63 0 4.761 2.131 4.761 4.761 0 2.629-2.131 4.761-4.761 4.761zm-44.585 0h-22.294c-2.63 0-4.761-2.132-4.761-4.761 0-2.63 2.131-4.761 4.761-4.761h22.294c2.63 0 4.761 2.131 4.761 4.761 0 2.629-2.132 4.761-4.761 4.761z" />
    <path
      d="m254.208 97.299h-11.902c-2.63 0-4.761-2.132-4.761-4.761 0-2.63 2.131-4.761 4.761-4.761h11.902c2.629 0 4.761 2.131 4.761 4.761 0 2.629-2.132 4.761-4.761 4.761z" />
  </g>
</svg>