<?xml version="1.0" encoding="UTF-8"?>
<svg xmlns="http://www.w3.org/2000/svg" id="Layer_3" data-name="Layer 3" viewBox="0 0 64 64" width="512" height="512">
  <path
    d="M62.121,53H57V48.576a10.916,10.916,0,0,0,3.051-1.408l.5-.336A1,1,0,0,0,61,46V8a1,1,0,0,0-.445-.832l-.5-.336a11.086,11.086,0,0,0-12.1,0l-.5.336A1,1,0,0,0,47,8v4H43V8a1,1,0,0,0-.445-.832l-.5-.336a11.086,11.086,0,0,0-12.1,0l-.5.336A1,1,0,0,0,29,8V38H21V36a5.006,5.006,0,0,0-5-5H10a5.006,5.006,0,0,0-5,5V47a1,1,0,0,0-1,1v5H2a1,1,0,0,0-1,1v4a1,1,0,0,0,1,1H62.121a1,1,0,0,0,1-1V54A1,1,0,0,0,62.121,53ZM49,8.535l.059-.039a9.051,9.051,0,0,1,9.882,0L59,8.535v36.93l-.059.039a9.051,9.051,0,0,1-9.882,0L49,45.465ZM39,48.576a10.916,10.916,0,0,0,3.051-1.408l.5-.336A1,1,0,0,0,43,46V18h4V46a1,1,0,0,0,.445.832l.5.336A10.916,10.916,0,0,0,51,48.576V53H39ZM47,14v2H43V14ZM31,8.535l.059-.039a9.051,9.051,0,0,1,9.882,0L41,8.535v36.93l-.059.039a9.051,9.051,0,0,1-9.882,0L31,45.465ZM21,47V44h8v2a1,1,0,0,0,.445.832l.5.336A10.916,10.916,0,0,0,33,48.576V53H22V48A1,1,0,0,0,21,47Zm8-7v2H21V40ZM7,36a3,3,0,0,1,3-3h6a3,3,0,0,1,3,3V47H7ZM6,49H20v4H6Zm55.121,8H3V55H34a1,1,0,0,0,1-1V48.949c.331.03.664.051,1,.051s.669-.021,1-.051V54a1,1,0,0,0,1,1H52a1,1,0,0,0,1-1V48.949c.331.03.664.051,1,.051s.669-.021,1-.051V54a1,1,0,0,0,1,1h5.121Z" />
  <path
    d="M36,27a3,3,0,0,0,3-3c0-1.278-1.522-3.62-2.177-4.568a1.038,1.038,0,0,0-1.646,0C34.522,20.38,33,22.722,33,24A3,3,0,0,0,36,27Zm0-5.146A7.5,7.5,0,0,1,37,24a1,1,0,0,1-2,0A7.457,7.457,0,0,1,36,21.854Z" />
  <path
    d="M54,27a3,3,0,0,0,3-3c0-1.278-1.522-3.62-2.177-4.568a1.038,1.038,0,0,0-1.646,0C52.522,20.38,51,22.722,51,24A3,3,0,0,0,54,27Zm0-5.146A7.5,7.5,0,0,1,55,24a1,1,0,0,1-2,0A7.457,7.457,0,0,1,54,21.854Z" />
</svg>