<svg version="1.1" id="Capa_1" xmlns="http://www.w3.org/2000/svg" xmlns:xlink="http://www.w3.org/1999/xlink" x="0px"
	y="0px" viewBox="0 0 512 512" style="enable-background:new 0 0 512 512;" xml:space="preserve">
	<g fill="none">
		<path style="fill:none;stroke:#fff;stroke-width:15;stroke-linecap:round;stroke-linejoin:round;stroke-miterlimit:10;"
			d="&#10;&#9;&#9;M100.688,95.156V74.624c0-2.761-2.239-5-5-5H12.5c-2.761,0-5,2.239-5,5v95.091" />

		<line style="fill:none;stroke:#fff;stroke-width:15;stroke-linecap:round;stroke-linejoin:round;stroke-miterlimit:10;"
			x1="100.688" y1="169.715" x2="100.688" y2="130.156" />
		<path style="fill:none;stroke:#fff;stroke-width:15;stroke-linecap:round;stroke-linejoin:round;stroke-miterlimit:10;"
			d="&#10;&#9;&#9;M411.312,169.715V74.624c0-2.761,2.239-5,5-5H499.5c2.761,0,5,2.239,5,5v95.091" />
		<g>
			<g>

				<line
					style="fill:none;stroke:#fff;stroke-width:15;stroke-linecap:round;stroke-linejoin:round;stroke-miterlimit:10;"
					x1="38.563" y1="271.531" x2="38.563" y2="271.531" />
			</g>
		</g>
		<g>
			<g>

				<line
					style="fill:none;stroke:#fff;stroke-width:15;stroke-linecap:round;stroke-linejoin:round;stroke-miterlimit:10;"
					x1="69.625" y1="302.593" x2="69.625" y2="302.593" />
			</g>
		</g>
		<g>
			<g>

				<line
					style="fill:none;stroke:#fff;stroke-width:15;stroke-linecap:round;stroke-linejoin:round;stroke-miterlimit:10;"
					x1="69.625" y1="240.468" x2="69.625" y2="240.468" />
			</g>
		</g>
		<g>
			<g>

				<line
					style="fill:none;stroke:#fff;stroke-width:15;stroke-linecap:round;stroke-linejoin:round;stroke-miterlimit:10;"
					x1="38.563" y1="209.406" x2="38.563" y2="209.406" />
			</g>
		</g>
		<g>
			<g>

				<line
					style="fill:none;stroke:#fff;stroke-width:15;stroke-linecap:round;stroke-linejoin:round;stroke-miterlimit:10;"
					x1="69.625" y1="349.187" x2="69.625" y2="349.187" />
			</g>
		</g>
		<g>
			<g>

				<line
					style="fill:none;stroke:#fff;stroke-width:15;stroke-linecap:round;stroke-linejoin:round;stroke-miterlimit:10;"
					x1="100.688" y1="364.718" x2="100.688" y2="364.718" />
			</g>
		</g>
		<g>
			<g>

				<line
					style="fill:none;stroke:#fff;stroke-width:15;stroke-linecap:round;stroke-linejoin:round;stroke-miterlimit:10;"
					x1="147.281" y1="395.781" x2="147.281" y2="395.781" />
			</g>
		</g>
		<g>
			<g>

				<line
					style="fill:none;stroke:#fff;stroke-width:15;stroke-linecap:round;stroke-linejoin:round;stroke-miterlimit:10;"
					x1="116.219" y1="411.312" x2="116.219" y2="411.312" />
			</g>
		</g>
		<g>
			<g>

				<line
					style="fill:none;stroke:#fff;stroke-width:15;stroke-linecap:round;stroke-linejoin:round;stroke-miterlimit:10;"
					x1="178.344" y1="426.843" x2="178.344" y2="426.843" />
			</g>
		</g>

		<polyline
			style="fill:none;stroke:#fff;stroke-width:15;stroke-linecap:round;stroke-linejoin:round;stroke-miterlimit:10;"
			points="&#10;&#9;&#9;442.375,38.563 457.906,23.032 473.438,38.563 &#9;" />

		<line style="fill:none;stroke:#fff;stroke-width:15;stroke-linecap:round;stroke-linejoin:round;stroke-miterlimit:10;"
			x1="457.906" y1="116.218" x2="457.906" y2="25.032" />

		<polyline
			style="fill:none;stroke:#fff;stroke-width:15;stroke-linecap:round;stroke-linejoin:round;stroke-miterlimit:10;"
			points="&#10;&#9;&#9;69.625,100.685 54.094,116.216 38.562,100.685 &#9;" />

		<line style="fill:none;stroke:#fff;stroke-width:15;stroke-linecap:round;stroke-linejoin:round;stroke-miterlimit:10;"
			x1="54.094" y1="38.562" x2="54.094" y2="114.216" />

		<line style="fill:none;stroke:#fff;stroke-width:15;stroke-linecap:round;stroke-linejoin:round;stroke-miterlimit:10;"
			x1="256.08" y1="467.981" x2="256.08" y2="488.966" />

		<line style="fill:none;stroke:#fff;stroke-width:15;stroke-linecap:round;stroke-linejoin:round;stroke-miterlimit:10;"
			x1="256.08" y1="395.781" x2="256.08" y2="432.981" />
		<path style="fill:none;stroke:#fff;stroke-width:15;stroke-linecap:round;stroke-linejoin:round;stroke-miterlimit:10;"
			d="&#10;&#9;&#9;M384.341,327.156c-21.996,32.54-55.814,56.396-95.299,65.059" />
		<path style="fill:none;stroke:#fff;stroke-width:15;stroke-linecap:round;stroke-linejoin:round;stroke-miterlimit:10;"
			d="&#10;&#9;&#9;M288.269,486.835C409.911,470.656,504.5,364.475,504.5,238.54v-68.825c-8.074-1.475-9.768-6.236-20.705-6.236&#10;&#9;&#9;c-12.942,0-12.942,6.667-25.884,6.667c-12.943,0-12.943-6.667-25.887-6.667c-10.94,0-12.634,4.762-20.71,6.237v69.267&#10;&#9;&#9;c0,19.629-3.608,38.465-10.201,55.848" />
		<path style="fill:none;stroke:#fff;stroke-width:15;stroke-linecap:round;stroke-linejoin:round;stroke-miterlimit:10;"
			d="&#10;&#9;&#9;M223.731,486.835C102.089,470.656,7.5,364.475,7.5,238.54v-68.825c8.074-1.475,9.768-6.236,20.706-6.236&#10;&#9;&#9;c12.942,0,12.942,6.667,25.884,6.667c12.943,0,12.943-6.667,25.887-6.667c10.94,0,12.634,4.762,20.71,6.237v69.267&#10;&#9;&#9;c0,74.671,52.217,137.863,122.271,153.232" />
		<path style="fill:none;stroke:#fff;stroke-width:15;stroke-linecap:round;stroke-linejoin:round;stroke-miterlimit:10;"
			d="&#10;&#9;&#9;M287.063,438.355c0-14.526,6-14.526,6-29.052c0-8.941-2.273-12.379-4.021-17.089c-10.617,2.329-21.644,3.561-32.961,3.566&#10;&#9;&#9;c-11.372,0.006-22.459-1.211-33.137-3.525c-1.746,4.688-4.006,8.132-4.006,17.048c0,14.526,6,14.526,6,29.052&#10;&#9;&#9;c0,14.528-6,14.528-6,29.056c0,10.376,3.06,13.342,4.81,19.482c10.261,1.33,20.719,2.034,31.333,2.072&#10;&#9;&#9;c11.247,0.041,22.326-0.686,33.189-2.131c1.752-6.101,4.793-9.08,4.793-19.423C293.063,452.883,287.063,452.883,287.063,438.355z" />

		<line style="fill:none;stroke:#fff;stroke-width:15;stroke-linecap:round;stroke-linejoin:round;stroke-miterlimit:10;"
			x1="287.063" y1="279.296" x2="287.063" y2="294.828" />

		<line style="fill:none;stroke:#fff;stroke-width:15;stroke-linecap:round;stroke-linejoin:round;stroke-miterlimit:10;"
			x1="287.063" y1="341.421" x2="287.063" y2="356.953" />

		<line style="fill:none;stroke:#fff;stroke-width:15;stroke-linecap:round;stroke-linejoin:round;stroke-miterlimit:10;"
			x1="325.891" y1="318.124" x2="310.359" y2="318.124" />

		<line style="fill:none;stroke:#fff;stroke-width:15;stroke-linecap:round;stroke-linejoin:round;stroke-miterlimit:10;"
			x1="263.766" y1="318.124" x2="248.234" y2="318.124" />

		<line style="fill:none;stroke:#fff;stroke-width:15;stroke-linecap:round;stroke-linejoin:round;stroke-miterlimit:10;"
			x1="333.922" y1="186.109" x2="333.922" y2="201.64" />

		<line style="fill:none;stroke:#fff;stroke-width:15;stroke-linecap:round;stroke-linejoin:round;stroke-miterlimit:10;"
			x1="333.922" y1="248.234" x2="333.922" y2="263.765" />

		<line style="fill:none;stroke:#fff;stroke-width:15;stroke-linecap:round;stroke-linejoin:round;stroke-miterlimit:10;"
			x1="372.75" y1="224.937" x2="357.219" y2="224.937" />

		<line style="fill:none;stroke:#fff;stroke-width:15;stroke-linecap:round;stroke-linejoin:round;stroke-miterlimit:10;"
			x1="310.625" y1="224.937" x2="295.094" y2="224.937" />
	</g>
	<g>
	</g>
	<g>
	</g>
	<g>
	</g>
	<g>
	</g>
	<g>
	</g>
	<g>
	</g>
	<g>
	</g>
	<g>
	</g>
	<g>
	</g>
	<g>
	</g>
	<g>
	</g>
	<g>
	</g>
	<g>
	</g>
	<g>
	</g>
	<g>
	</g>
</svg>