<svg id="Layer_1" enable-background="new 0 0 512 512" viewBox="0 0 512 512" xmlns="http://www.w3.org/2000/svg">
  <path
    d="m509.6 180.1s-59.1-48.2-59.1-48.2c-1-.8-2.3-1.3-3.6-1.3h-34.7l19.5-32.3c2.3-3.6-.6-8.7-4.8-8.5h-14.9v-55c0-3.1-2.5-5.6-5.6-5.6h-27.5c-3.1 0-5.6 2.5-5.6 5.6v55h-14.9c-4.2-.1-7.1 5-4.8 8.5l19.5 32.3h-97.5l19.5-32.3c2.3-3.6-.6-8.7-4.8-8.5h-14.9v-55c0-3.1-2.5-5.6-5.6-5.6h-27.5c-3.1 0-5.6 2.5-5.6 5.6v55h-14.9c-4.2-.1-7.1 5-4.8 8.5l19.5 32.3h-97.5l19.5-32.3c2.3-3.6-.6-8.7-4.8-8.5h-14.9v-55c0-3.1-2.5-5.6-5.6-5.6h-27.5c-3.1 0-5.6 2.5-5.6 5.6v55h-15c-4.2-.1-7.1 5-4.8 8.5l19.5 32.3h-34.7c-1.3 0-2.6.4-3.6 1.3l-59.1 48.2c-.7.7-1.3 1.4-1.6 2.4-.3.7-.4 1.5-.4 2.3v124.4c0 3.1 2.5 5.6 5.6 5.6h500c3.1 0 5.6-2.5 5.6-5.6v-124.5c.1-1.8-.7-3.4-2-4.6zm-141.3-79.1h10.6c3.1 0 5.6-2.5 5.6-5.6v-55h16.3v55c0 3.1 2.5 5.6 5.6 5.6h10.6l-24.3 40.2zm-136.6 0h10.6c3.1 0 5.6-2.5 5.6-5.6v-55h16.2v55c0 3.1 2.5 5.6 5.6 5.6h10.6l-24.3 40.3zm-136.7 0h10.5c3.1 0 5.6-2.5 5.6-5.6v-55h16.3v55c0 3.1 2.5 5.6 5.6 5.6h10.6l-24.3 40.2zm-27.9 40.9h39.5l8 13.2c1 1.7 2.8 2.7 4.8 2.7s3.8-1 4.8-2.7l8-13.2h111l8 13.2c1 1.7 2.8 2.7 4.8 2.7s3.8-1 4.8-2.7l8-13.2h111l8 13.2c1 1.7 2.8 2.7 4.8 2.7s3.8-1 4.8-2.7l8-13.2h39.5l45.3 36.9h-468.4zm433.3 161.6h-488.8v-113.4h488.8zm-471.9-11.3h455c3.1 0 5.6-2.5 5.6-5.6v-79.7c0-3.1-2.5-5.6-5.6-5.6h-455c-3.1 0-5.6 2.5-5.6 5.6v79.7c0 3.1 2.5 5.6 5.6 5.6zm73.4-11.2h-31.2v-6.5l15.6-9 15.6 9zm42.4 0h-31.2v-6.5l15.6-9 15.6 9zm42.4 0h-31.2v-6.5l15.6-9 15.6 9zm42.5 0h-31.2v-6.5l15.6-9 15.6 9zm42.4 0h-31.2v-6.5l15.6-9 15.6 9zm42.4 0h-31.2v-6.5l15.6-9 15.6 9zm42.4 0h-31.2v-6.5l15.6-9 15.6 9zm42.5 0h-31.2v-6.5l15.6-9 15.6 9zm42.4 0h-31.2v-6.5l15.6-9 15.6 9zm36.6 0h-25.3v-6.5l18.4-10.6c3.9-1.8 2.6-8.1 2.8-11.5h4.1zm-25.3-68.4h25.3v28.6h-4.1c-.2-3.4 1.1-9.7-2.8-11.5 0 0-18.4-10.6-18.4-10.6zm9.9 25.2v18l-15.6 9-15.6-9v-18l15.6-9zm-52.4-25.2h31.2v6.5l-15.6 9-15.6-9zm10 25.2v18l-15.6 9-15.6-9v-18l15.6-9zm-52.4-25.2h31.2v6.5l-15.6 9-15.6-9zm10 25.2v18l-15.6 9-15.6-9v-18l15.6-9zm-52.4-25.2h31.2v6.5l-15.6 9-15.6-9zm9.9 25.2v18l-15.6 9-15.6-9v-18l15.6-9zm-52.4-25.2h31.2v6.5l-15.6 9-15.6-9zm10 25.2v18l-15.6 9-15.6-9v-18l15.6-9zm-52.4-25.2h31.2v6.5l-15.6 9-15.6-9zm10 25.2v18l-15.6 9-15.6-9v-18l15.6-9zm-52.4-25.2h31.2v6.5l-15.6 9-15.6-9zm9.9 25.2v18l-15.6 9-15.6-9v-18l15.6-9zm-52.3-25.2h31.2v6.5l-15.6 9-15.6-9zm9.9 25.2v18l-15.6 9-15.6-9v-18l15.6-9zm-52.4-25.2h31.2v6.5l-15.6 9-15.6-9zm10 25.2v18l-15.6 9-15.6-9v-18l15.6-9zm-52.4-25.2h31.2v6.5l-15.6 9-15.6-9zm9.9 25.2v18l-15.6 9-15.6-9v-18l15.6-9zm-46.5-25.2h25.3v6.5l-18.4 10.5c-3.9 1.8-2.6 8.1-2.8 11.5h-4.1zm0 39.8h4.1c.2 3.4-1.1 9.7 2.8 11.5 0 0 18.4 10.6 18.4 10.6v6.5h-25.3zm80.5 94.2c-4.3 6.7-41.9 65.9-41.9 89.6 2.3 61.8 91 61.8 93.3 0 0-23.6-37.6-82.9-41.9-89.6-2.1-3.2-7.4-3.2-9.5 0zm4.8 125c-19.5 0-35.4-15.9-35.4-35.4 0-15.2 22.4-54.8 35.4-75.9 13 21.2 35.4 60.8 35.4 75.9 0 19.5-15.9 35.4-35.4 35.4zm131.9-125c-4.3 6.7-41.9 65.9-41.9 89.6 0 25.7 20.9 46.7 46.7 46.7s46.7-20.9 46.7-46.7c0-23.6-37.6-82.9-41.9-89.6-2.2-3.2-7.6-3.2-9.6 0zm-30.7 89.6c0-15.2 22.4-54.8 35.4-75.9 13 21.2 35.4 60.8 35.4 75.9-1.6 46.8-69.2 46.8-70.8 0zm167.3-89.6c-4.3 6.7-41.9 65.9-41.9 89.6 0 25.7 20.9 46.7 46.7 46.7 25.7 0 46.7-20.9 46.7-46.7 0-23.6-37.6-82.9-41.9-89.6-2.2-3.2-7.5-3.2-9.6 0zm-30.7 89.6c0-15.2 22.4-54.8 35.4-75.9 13 21.2 35.4 60.8 35.4 75.9-1.6 46.8-69.1 46.8-70.8 0z" />
</svg>