<svg id="Capa_1" enable-background="new 0 0 513.064 513.064" height="512" viewBox="0 0 513.064 513.064" width="512"
  xmlns="http://www.w3.org/2000/svg">
  <path
    d="m482.456 126.879c4.143 0 7.5-3.357 7.5-7.5v-20.437c0-21.606-16.006-39.538-36.782-42.576v-10.145c0-7.957-5.015-14.748-12.043-17.428v-7.515c-.001-11.733-9.546-21.278-21.279-21.278s-21.279 9.545-21.279 21.278v7.515c-7.028 2.68-12.043 9.47-12.043 17.428v10.145c-20.775 3.038-36.781 20.97-36.781 42.576v1.775h-30.8v-1.776c0-21.605-16.006-39.538-36.782-42.576v-10.144c0-7.957-5.014-14.748-12.042-17.427v-7.515c0-11.734-9.546-21.279-21.28-21.279s-21.278 9.545-21.278 21.278v7.514c-7.028 2.679-12.043 9.47-12.043 17.428v10.145c-16.704 2.443-30.315 14.515-35.012 30.383h-57.863v-6.523c0-11.187-9.102-20.288-20.289-20.288h-12.717c-11.188 0-20.289 9.102-20.289 20.288v9.523h-24.487c-11.997 0-21.758 9.761-21.758 21.758s9.761 21.758 21.758 21.758h24.487v8.893c0 11.188 9.102 20.289 20.289 20.289h11.598v22.558c0 4.143 3.357 7.5 7.5 7.5s7.5-3.357 7.5-7.5v-28.09c3.934-3.703 6.408-8.941 6.408-14.757v-6.522h10.592v105.605h-17v-24.274c0-4.143-3.357-7.5-7.5-7.5s-7.5 3.357-7.5 7.5v25.336c-6.536 2.403-11.221 8.672-11.221 16.032v17.277c0 7.359 4.684 13.629 11.221 16.031v21.847c-6.014 6.018-9.739 14.325-9.739 23.486 0 9.16 3.725 17.467 9.739 23.485v18.884c-6.536 2.403-11.221 8.672-11.221 16.031v17.278c0 7.359 4.684 13.629 11.221 16.031v48.01c0 12.958 10.542 23.5 23.5 23.5h104.566c3.267 7.561 10.792 12.869 19.538 12.869 11.733 0 21.279-9.546 21.279-21.279v-7.514c7.028-2.68 12.042-9.471 12.042-17.428v-10.145c20.501-2.998 36.344-20.501 36.76-41.722h30.843c.416 21.221 16.259 38.724 36.76 41.722v10.145c0 7.957 5.015 14.749 12.043 17.428v7.514c0 11.733 9.546 21.279 21.279 21.279s21.278-9.546 21.278-21.279v-7.514c7.028-2.68 12.043-9.471 12.043-17.428v-10.145c20.776-3.038 36.782-20.97 36.782-42.575v-262.78c0-4.143-3.357-7.5-7.5-7.5s-7.5 3.357-7.5 7.5v262.78c0 15.459-12.577 28.035-28.036 28.035h-54.136c-15.459 0-28.035-12.576-28.035-28.035v-6.646-63h61.587c10.43 0 18.915-8.485 18.915-18.916v-135.348c0-10.431-8.485-18.916-18.915-18.916h-61.587v-63.078-9.275c0-15.459 12.576-28.036 28.035-28.036h54.136c15.459 0 28.036 12.577 28.036 28.036v20.437c.002 4.141 3.359 7.499 7.502 7.499zm-44.283 339.964c0 2.021-1.644 3.664-3.664 3.664h-29.315c-2.021 0-3.664-1.644-3.664-3.664v-9.686h36.644v9.686zm-12.043 24.942c0 3.463-2.816 6.279-6.278 6.279-3.463 0-6.279-2.816-6.279-6.279v-6.278h12.558v6.278zm-107.181-155.183v-157.51h30.8v157.51zm30.8-220.884v48.374h-30.8v-48.374zm-119.225-69.497c0-2.02 1.644-3.663 3.663-3.663h29.316c2.02 0 3.663 1.644 3.663 3.663v9.686h-36.643v-9.686zm12.043-24.943c0-3.462 2.816-6.278 6.278-6.278 3.463 0 6.279 2.816 6.279 6.278v6.279h-12.558v-6.279zm-204.458 90.229c0-3.727 3.031-6.758 6.758-6.758h35.875v13.516h-35.875c-3.727 0-6.758-3.032-6.758-6.758zm46.245 30.65v-9.295c6.516-1.53 11.388-7.377 11.388-14.353v-14.004c0-6.976-4.871-12.823-11.388-14.353v-9.926c0-2.916 2.373-5.288 5.289-5.288h12.717c2.916 0 5.289 2.372 5.289 5.288v14.004c0 .007-.001.013-.001.019v33.886c0 .007.001.013.001.019v14.003c0 2.916-2.373 5.289-5.289 5.289h-12.717c-2.916 0-5.289-2.373-5.289-5.289zm38.295-40.408h56.093v18.886h-56.093zm56.093 33.886v278.487c0 17.303 10.271 32.244 25.031 39.073h-55.532v-24.509c6.537-2.403 11.222-8.672 11.222-16.032v-17.278c0-7.36-4.685-13.629-11.222-16.032v-18.883c6.015-6.018 9.74-14.325 9.74-23.486s-3.725-17.468-9.74-23.487v-21.846c6.537-2.403 11.222-8.672 11.222-16.032v-17.277c0-7.36-4.685-13.63-11.222-16.033v-106.665zm88.425 331.208c0 2.021-1.644 3.664-3.663 3.664h-29.316c-2.02 0-3.663-1.644-3.663-3.664v-9.686h36.643v9.686zm-160.666-129.867c0-10.058 8.182-18.24 18.239-18.24s18.24 8.183 18.24 18.24-8.183 18.239-18.24 18.239-18.239-8.182-18.239-18.239zm37.961-78.642v17.277c0 1.154-.939 2.093-2.094 2.093h-35.256c-1.154 0-2.093-.938-2.093-2.093v-17.277c0-1.154.938-2.094 2.093-2.094h35.256c1.155 0 2.094.94 2.094 2.094zm-11.221 34.37v12.137c-2.715-.719-5.562-1.106-8.5-1.106s-5.785.387-8.5 1.106v-12.137zm-8.5 77.511c2.938 0 5.785-.387 8.5-1.106v9.174h-17v-9.174c2.714.719 5.562 1.106 8.5 1.106zm-17.628 44.532c-1.154 0-2.093-.938-2.093-2.093v-17.278c0-1.154.938-2.093 2.093-2.093h35.256c1.154 0 2.094.938 2.094 2.093v17.278c0 1.154-.939 2.093-2.094 2.093zm9.128 61.948v-46.948h17v30.948c0 4.143 3.357 7.5 7.5 7.5h74.852c.532 7.368 5.35 13.551 11.974 16.076v.924h-102.826c-4.687 0-8.5-3.813-8.5-8.5zm138.884 15.09c0 3.463-2.816 6.279-6.279 6.279-3.462 0-6.278-2.816-6.278-6.279v-6.278h12.558v6.278zm48.824-77.663c0 15.459-12.576 28.035-28.035 28.035h-54.136c-15.459 0-28.036-12.576-28.036-28.035v-69.646h61.587c10.431 0 18.916-8.485 18.916-18.916v-26.625c0-4.143-3.357-7.5-7.5-7.5s-7.5 3.357-7.5 7.5v26.625c0 2.159-1.757 3.916-3.916 3.916h-61.587v-143.18h61.587c2.159 0 3.916 1.757 3.916 3.916v76.761c0 4.143 3.357 7.5 7.5 7.5s7.5-3.357 7.5-7.5v-76.761c0-10.431-8.485-18.916-18.916-18.916h-61.587v-43.161-29.194c0-15.459 12.577-28.035 28.036-28.035h54.136c15.459 0 28.035 12.576 28.035 28.035v9.276 63.374 172.51 63.374zm15-62.52h30.8v48.374h-30.8zm111.301-161.39v135.348c0 2.159-1.756 3.916-3.915 3.916h-61.587v-143.18h61.587c2.16 0 3.915 1.757 3.915 3.916zm-28.72-143.991c0-2.02 1.644-3.663 3.664-3.663h29.315c2.021 0 3.664 1.644 3.664 3.663v9.686h-36.643zm12.043-24.943c0-3.462 2.816-6.278 6.279-6.278 3.462 0 6.278 2.816 6.278 6.278v6.279h-12.558v-6.279z" />
</svg>