<svg id="a" height="512" viewBox="0 0 64 64" width="512" xmlns="http://www.w3.org/2000/svg">
  <path
    d="m58.5001 53h-9.5v-4.35004c2.3266-.82629 4-3.04346 4-5.64996v-3h1c2.20605 0 4-1.79395 4-4v-16c0-2.20557-1.79395-4-4-4h-1v-2c0-3.30859-2.69141-6-6-6h-3.10107c-.46466-2.2793-2.4845-4-4.89893-4h-14c-2.41443 0-4.43427 1.7207-4.89893 4h-3.10107c-3.30859 0-6 2.69141-6 6v29c0 2.60651 1.6734 4.82367 4 5.64996v4.35004h-9.5c-4.61182.14142-4.63617 6.8501.00006 7-.00006 0 52.99994 0 52.99994 0 4.60712-.13947 4.64032-6.84906 0-7zm-4.5-35c1.10254 0 2 .89697 2 2v16c0 1.10254-.89746 2-2 2h-14c-1.10254 0-2-.89746-2-2v-16c0-1.10303.89746-2 2-2zm-7-8c2.20605 0 4 1.79443 4 4v2h-11c-2.20605 0-4 1.79443-4 4v16c0 2.20605 1.79395 4 4 4h11v3c0 2.20605-1.79395 4-4 4h-20v-37zm-22-4h14c1.30371 0 2.41602.83594 2.8291 2h-19.6582c.41309-1.16406 1.52539-2 2.8291-2zm-6 4h6v2h-6zm0 4h6v3h-6zm0 5h6v4h-6zm0 6h6v5h-6zm0 7h6v7h-6zm0 9h6v6h-6zm28 8v4h-30v-4zm-34-6v-29c0-2.20557 1.79395-4 4-4v37c-2.20605 0-4-1.79395-4-4zm45.5 15h-53c-1.95276-.02966-1.98615-2.96344.00006-3-.00006 0 52.99994 0 52.99994 0 1.95276.02966 1.98615 2.96338 0 3z" />
  <path
    d="m47.0001 36c3.30859 0 6-2.69141 6-6 0-3.02539-4.68555-8.95898-5.21973-9.62549-.37891-.47363-1.18164-.47363-1.56055 0-.53418.6665-5.21973 6.6001-5.21973 9.62549 0 3.30859 2.69141 6 6 6zm0-13.36523c1.79199 2.39355 4 5.84375 4 7.36523 0 2.20557-1.79395 4-4 4s-4-1.79443-4-4c0-1.52148 2.20801-4.97168 4-7.36523z" />
</svg>